<?xml version="1.0" encoding="iso-8859-1"?>
<!-- Generator: Adobe Illustrator 19.0.0, SVG Export Plug-In . SVG Version: 6.00 Build 0)  -->
<svg version="1.1" id="Layer_1" xmlns="http://www.w3.org/2000/svg" xmlns:xlink="http://www.w3.org/1999/xlink" x="0px" y="0px"
	 viewBox="0 0 512 512" style="enable-background:new 0 0 512 512;" xml:space="preserve">
<g>
	<g>
		<path d="M168.015,117.138c-32.074,0-56.601,13.585-56.601,50.941v53.583c0,37.357,24.527,50.941,56.601,50.941
			c31.697,0,56.601-13.584,56.601-50.941v-53.583C224.616,130.722,199.712,117.138,168.015,117.138z M186.883,221.662
			c0,12.453-7.169,18.112-18.867,18.112s-18.49-5.661-18.49-18.112v-53.583c0-12.453,6.792-18.112,18.49-18.112
			s18.867,5.661,18.867,18.112V221.662z"/>
	</g>
</g>
<g>
	<g>
		<path d="M319.329,101.667c-6.792,0-12.829,3.019-15.848,9.433L171.035,383.164c-1.133,2.264-1.887,4.906-1.887,7.17
			c0,9.433,8.301,19.999,21.132,19.999c7.17,0,14.339-3.773,16.979-9.434l132.824-272.063c1.131-2.264,1.509-4.906,1.509-7.17
			C341.592,109.592,329.894,101.667,319.329,101.667z"/>
	</g>
</g>
<g>
	<g>
		<path d="M341.214,238.643c-32.073,0-56.6,13.584-56.6,50.941v53.583c0,37.357,24.527,50.941,56.6,50.941
			c31.697,0,56.601-13.584,56.601-50.941v-53.583C397.816,252.227,372.912,238.643,341.214,238.643z M360.082,343.166
			c0,12.453-7.17,18.112-18.868,18.112s-18.489-5.661-18.489-18.112v-53.583c0-12.453,6.792-18.112,18.489-18.112
			c11.698,0,18.868,5.661,18.868,18.112V343.166z"/>
	</g>
</g>
<g>
	<g>
		<path d="M256,0C114.509,0,0,114.497,0,256c0,141.49,114.497,256,256,256c141.489,0,256-114.497,256-256
			C512,114.512,397.503,0,256,0z M256,478.657c-122.773,0-222.657-99.883-222.657-222.657S133.227,33.343,256,33.343
			S478.657,133.227,478.657,256S378.773,478.657,256,478.657z"/>
	</g>
</g>
<g>
</g>
<g>
</g>
<g>
</g>
<g>
</g>
<g>
</g>
<g>
</g>
<g>
</g>
<g>
</g>
<g>
</g>
<g>
</g>
<g>
</g>
<g>
</g>
<g>
</g>
<g>
</g>
<g>
</g>
</svg>
